<svg width="61" height="46" viewBox="0 0 61 46" fill="none" xmlns="http://www.w3.org/2000/svg">
<path fill-rule="evenodd" clip-rule="evenodd" d="M19.1209 45.4538L55.132 10.822L58.5419 14.102L60.1182 0.5625L46.0266 2.07865L49.4364 5.35666L7.74219 45.4678H19.1209V45.4538ZM55.5593 45.4538V34.7569L44.4357 45.4538H55.5593ZM37.5745 45.4538L55.5593 28.1729V17.2302L26.2082 45.4538H37.5869H37.5745Z" fill="#519E8A"/>
<path fill-rule="evenodd" clip-rule="evenodd" d="M0 28.2396L14.6185 14.1827V14.0589L8.99137 8.64947L0 17.2969V28.2396ZM0 10.4792L5.38445 5.30155V5.17969L0 0V10.4792ZM0 46L23.8505 23.0619V22.9381L18.2254 17.5287L0 35.0573V46Z" fill="#2D4363"/>
</svg>
