<svg width="24" height="24" viewBox="0 0 24 24" fill="none" xmlns="http://www.w3.org/2000/svg">
<mask id="mask0_4595_55860" style="mask-type:alpha" maskUnits="userSpaceOnUse" x="0" y="0" width="24" height="24">
<rect width="24" height="24" fill="#D9D9D9"/>
</mask>
<g mask="url(#mask0_4595_55860)">
<path d="M19.4758 20.375L13.2258 14.125C12.7258 14.5417 12.1508 14.8667 11.5008 15.1C10.8508 15.3333 10.2008 15.45 9.55078 15.45C7.93411 15.45 6.57178 14.8957 5.46378 13.787C4.35511 12.679 3.80078 11.325 3.80078 9.725C3.80078 8.125 4.35511 6.77067 5.46378 5.662C6.57178 4.554 7.92578 4 9.52578 4C11.1258 4 12.4841 4.554 13.6008 5.662C14.7174 6.77067 15.2758 8.125 15.2758 9.725C15.2758 10.425 15.1508 11.1 14.9008 11.75C14.6508 12.4 14.3258 12.95 13.9258 13.4L20.2008 19.675L19.4758 20.375ZM9.55078 14.45C10.8674 14.45 11.9841 13.996 12.9008 13.088C13.8174 12.1793 14.2758 11.0583 14.2758 9.725C14.2758 8.39167 13.8174 7.27067 12.9008 6.362C11.9841 5.454 10.8674 5 9.55078 5C8.21745 5 7.09245 5.454 6.17578 6.362C5.25911 7.27067 4.80078 8.39167 4.80078 9.725C4.80078 11.0583 5.25911 12.1793 6.17578 13.088C7.09245 13.996 8.21745 14.45 9.55078 14.45Z" fill="white"/>
</g>
</svg>
